<?xml version="1.0" encoding="utf-8"?>
<!-- Generator: Adobe Illustrator 22.0.0, SVG Export Plug-In . SVG Version: 6.00 Build 0)  -->
<svg version="1.2" baseProfile="tiny" id="Layer_1" xmlns="http://www.w3.org/2000/svg" xmlns:xlink="http://www.w3.org/1999/xlink"
	 x="0px" y="0px" viewBox="0 0 612 612" xml:space="preserve">
<path fill="#4267B2" d="M535.5,612h-459C34.3,612,0,577.7,0,535.5v-459C0,34.3,34.3,0,76.5,0h459C577.7,0,612,34.3,612,76.5v459
	C612,577.7,577.7,612,535.5,612z"/>
<path id="f" fill="#FFFFFF" d="M422.5,612V375.3h79.8l12-92.6h-91.7v-59c0-26.8,7.4-45,45.8-45H517V96.1c-8.5-1.1-37.5-3.6-71.3-3.6
	c-70.5,0-118.8,43-118.8,122.1v68.2h-79.5v92.6h79.5V612H422.5z"/>
</svg>
