<?xml version="1.0" encoding="utf-8"?>
<!-- Generator: Adobe Illustrator 22.0.0, SVG Export Plug-In . SVG Version: 6.00 Build 0)  -->
<svg version="1.2" baseProfile="tiny" id="Messenger_Mark"
	 xmlns="http://www.w3.org/2000/svg" xmlns:xlink="http://www.w3.org/1999/xlink" x="0px" y="0px" viewBox="0 0 612 612"
	 xml:space="preserve">
<linearGradient id="SVGID_1_" gradientUnits="userSpaceOnUse" x1="306" y1="612" x2="306" y2="-9.094947e-13">
	<stop  offset="0.1137" style="stop-color:#006DFF"/>
	<stop  offset="0.9493" style="stop-color:#00C6FF"/>
</linearGradient>
<path fill="url(#SVGID_1_)" d="M535.5,612h-459C34.3,612,0,577.7,0,535.5v-459C0,34.3,34.3,0,76.5,0h459C577.7,0,612,34.3,612,76.5
	v459C612,577.7,577.7,612,535.5,612z"/>
<path id="Bubble_Shape" fill="#FFFFFF" d="M305.5,0.5C138.2,0.5,2.6,127.3,2.6,283.8c0,89,43.9,168.4,112.5,220.3v108.4l103.4-57.3
	c27.6,7.7,56.8,11.9,87,11.9c167.3,0,302.9-126.8,302.9-283.3S472.8,0.5,305.5,0.5z M337.4,380.3L259.1,299l-150.9,83.4l165.4-175.5
	l78.3,81.4l150.9-83.4L337.4,380.3z"/>
</svg>
