<?xml version="1.0" encoding="utf-8"?>
<!-- Generator: Adobe Illustrator 22.0.0, SVG Export Plug-In . SVG Version: 6.00 Build 0)  -->
<svg version="1.2" baseProfile="tiny" id="Layer_1" xmlns="http://www.w3.org/2000/svg" xmlns:xlink="http://www.w3.org/1999/xlink"
	 x="0px" y="0px" viewBox="0 0 612 612" xml:space="preserve">
<path fill="#0084FF" d="M535.5,0h-459C34.3,0,0,34.3,0,76.5v459C0,577.7,34.3,612,76.5,612h459c42.2,0,76.5-34.3,76.5-76.5v-459
	C612,34.3,577.7,0,535.5,0z"/>
<path fill="#FFFFFF" d="M307.2,111.2c-106.3,0-192.4,80.3-192.4,179.3c0,56.4,28,106.8,71.7,139.6v68.4l65.5-36.2
	c17.5,4.9,36,7.5,55.2,7.5c106.3,0,192.4-80.3,192.4-179.3S413.5,111.2,307.2,111.2z M326.3,352.6l-49-52.6l-95.6,52.6l105.2-112.4
	l50.2,52.6l94.4-52.6L326.3,352.6z"/>
</svg>
