<?xml version="1.0" encoding="utf-8"?>
<!-- Generator: Adobe Illustrator 22.0.0, SVG Export Plug-In . SVG Version: 6.00 Build 0)  -->
<svg version="1.1" id="Capa_1" xmlns="http://www.w3.org/2000/svg" xmlns:xlink="http://www.w3.org/1999/xlink" x="0px" y="0px"
	 viewBox="0 0 612 612" style="enable-background:new 0 0 612 612;" xml:space="preserve">
<g>
	<g id="_x34__12_">
		<g>
			<path d="M0,218.5v175c0,24.2,17.7,43.8,39.5,43.8h59.2V174.7H39.5C17.7,174.7,0,194.3,0,218.5z M493.5,306
				c0-77.1-51.6-140.3-118.5-151v43.8c45.1,10.1,79,54.3,79,107.2s-33.9,97.1-79,107.2V457C442,446.3,493.5,383.1,493.5,306z
				 M276.4,43.5L138.2,145.6v320.9l138.2,102.1c21.8,0,39.5-19.6,39.5-43.8V87.2C315.9,63,298.2,43.5,276.4,43.5z M375.1,0v44.9
				C491,69.7,572.5,174.5,572.5,306c0,130.8-79,232.1-197.4,261.1V612C508.9,590.3,612,462.3,612,306C612,149.7,508.9,21.7,375.1,0z
				"/>
		</g>
	</g>
</g>
</svg>
