<?xml version="1.0" encoding="utf-8"?>
<!-- Generator: Adobe Illustrator 22.0.0, SVG Export Plug-In . SVG Version: 6.00 Build 0)  -->
<svg version="1.1" id="Capa_1" xmlns="http://www.w3.org/2000/svg" xmlns:xlink="http://www.w3.org/1999/xlink" x="0px" y="0px"
	 viewBox="0 0 612 612" style="enable-background:new 0 0 612 612;" xml:space="preserve">
<g>
	<g id="_x34__38_">
		<g>
			<path d="M493.5,306c0-77.1-51.6-140.3-118.5-151v43.8c45.1,10.1,79,54.3,79,107.2s-33.9,97.1-79,107.2V457
				C442,446.3,493.5,383.1,493.5,306z M276.4,43.5L98.7,174.7H39.5C17.7,174.7,0,194.3,0,218.5v175c0,24.2,17.7,43.8,39.5,43.8h59.2
				l177.7,131.3c21.8,0,39.5-19.6,39.5-43.8V87.2C315.9,63,298.2,43.5,276.4,43.5z M98.7,371.7c0,12.1-8.8,21.9-19.7,21.9H59.2
				c-10.9,0-19.7-9.8-19.7-21.9V240.4c0-12.1,8.8-21.9,19.7-21.9H79c10.9,0,19.7,9.8,19.7,21.9L98.7,371.7L98.7,371.7z M276.4,524.8
				l-138.2-95.7V182.9l138.2-95.7V524.8z M375.1,0v44.9C491,69.7,572.5,174.5,572.5,306c0,130.8-79,232.1-197.4,261.1V612
				C508.9,590.3,612,462.3,612,306C612,149.7,508.9,21.7,375.1,0z"/>
		</g>
	</g>
</g>
</svg>
