<?xml version="1.0" encoding="utf-8"?>
<!-- Generator: Adobe Illustrator 22.0.0, SVG Export Plug-In . SVG Version: 6.00 Build 0)  -->
<svg version="1.1" id="Capa_1" xmlns="http://www.w3.org/2000/svg" xmlns:xlink="http://www.w3.org/1999/xlink" x="0px" y="0px"
	 viewBox="0 0 612 612" style="enable-background:new 0 0 612 612;" xml:space="preserve">
<g>
	<g id="_x32__23_">
		<g>
			<path d="M459,0L229.5,153H153c-28.2,0-51,22.8-51,51v204c0,28.2,22.8,51,51,51h76.5L459,612c28.2,0,51-22.8,51-51V51
				C510,22.8,487.2,0,459,0z M229.5,382.5c0,14.1-11.4,25.5-25.5,25.5h-25.5c-14.1,0-25.5-11.4-25.5-25.5v-153
				c0-14.1,11.4-25.5,25.5-25.5H204c14.1,0,25.5,11.4,25.5,25.5V382.5z M459,561L280.5,449.4V162.6L459,51V561z"/>
		</g>
	</g>
</g>
</svg>
