<?xml version="1.0" encoding="utf-8"?>
<!-- Generator: Adobe Illustrator 22.0.0, SVG Export Plug-In . SVG Version: 6.00 Build 0)  -->
<svg version="1.1" id="Capa_1" xmlns="http://www.w3.org/2000/svg" xmlns:xlink="http://www.w3.org/1999/xlink" x="0px" y="0px"
	 viewBox="0 0 612 612" style="enable-background:new 0 0 612 612;" xml:space="preserve">
<g>
	<g id="_x35_">
		<g>
			<path d="M210.3,344.3l-119.7,122l-41.7-41.7c-9-9-18.2-18.6-29.1-18.6C8.8,405.9,0,414.7,0,425.6l0.2,164.9
				c0,5.8,2.6,10.9,6.7,14.6c3.6,4,8.7,6.6,14.6,6.7l165.1,0.2c10.9,0,19.8-8.8,19.8-19.7c0-10.9-12.8-23.2-18.2-28.7l-41.7-41.7
				l121.5-120.2L210.3,344.3z M611.8,21.9c0-6-2.7-11.2-6.8-14.9c-3.7-4.1-8.9-6.8-14.8-6.8L422.4,0c-11.1,0-20.1,9-20.1,20.2
				c0,11.2,13,23.8,18.5,29.3l42.5,42.7l-119,118.1l57.4,57.4l118.1-118.6l42.4,42.7c9.2,9.2,18.5,19.1,29.6,19.1
				c11.1,0,20.1-9,20.1-20.2L611.8,21.9z"/>
		</g>
	</g>
</g>
</svg>
