<?xml version="1.0" encoding="utf-8"?>
<!-- Generator: Adobe Illustrator 22.0.0, SVG Export Plug-In . SVG Version: 6.00 Build 0)  -->
<svg version="1.1" id="Capa_1" xmlns="http://www.w3.org/2000/svg" xmlns:xlink="http://www.w3.org/1999/xlink" x="0px" y="0px"
	 viewBox="0 0 612 612" style="enable-background:new 0 0 612 612;" xml:space="preserve">
<g>
	<g id="_x33__36_">
		<g>
			<path d="M342.7,0L122.4,153H49c-27,0-49,22.8-49,51v204c0,28.2,21.9,51,49,51h73.4l220.3,153c27.1,0,49-22.8,49-51V51
				C391.7,22.8,369.8,0,342.7,0z M122.4,382.5c0,14.1-11,25.5-24.5,25.5H73.4C59.9,408,49,396.6,49,382.5v-153
				c0-14.1,11-25.5,24.5-25.5h24.5c13.5,0,24.5,11.4,24.5,25.5C122.4,229.5,122.4,382.5,122.4,382.5z M342.7,561L171.4,449.4V162.6
				L342.7,51V561z M465.1,130.1v51C521,192.9,563,244.3,563,306c0,61.7-42.1,113.1-97.9,124.9v51C548.1,469.5,612,395.8,612,306
				C612,216.1,548.1,142.5,465.1,130.1z"/>
		</g>
	</g>
</g>
</svg>
