<?xml version="1.0" encoding="utf-8"?>
<!-- Generator: Adobe Illustrator 22.0.0, SVG Export Plug-In . SVG Version: 6.00 Build 0)  -->
<svg version="1.1" id="Capa_1" xmlns="http://www.w3.org/2000/svg" xmlns:xlink="http://www.w3.org/1999/xlink" x="0px" y="0px"
	 viewBox="0 0 612 612" style="enable-background:new 0 0 612 612;" xml:space="preserve">
<g>
	<g id="_x35__1_">
		<g>
			<path d="M285.7,0L102.1,153H40.8C18.3,153,0,175.8,0,204v204c0,28.2,18.3,51,40.8,51h61.2l183.7,153c22.6,0,40.8-22.8,40.8-51V51
				C326.6,22.8,308.3,0,285.7,0z M102.1,382.5c0,14.1-9.1,25.5-20.4,25.5H61.2c-11.3,0-20.4-11.4-20.4-25.5v-153
				c0-14.1,9.1-25.5,20.4-25.5h20.4c11.3,0,20.4,11.4,20.4,25.5V382.5z M285.7,561L142.9,449.4V162.6L285.7,51V561z M519.3,306
				l85.2-106.4c9.2-11.5,10-29,1.9-39.2c-8.1-10.2-22.2-9.1-31.4,2.4l-85.2,106.4l-85.2-106.4c-9.2-11.5-23.2-12.6-31.4-2.4
				c-8.1,10.2-7.3,27.7,1.9,39.2L460.4,306l-85.2,106.4c-9.2,11.5-10.1,29-1.9,39.2c8.1,10.2,22.2,9.1,31.4-2.4l85.2-106.4
				L575,449.2c9.2,11.5,23.2,12.5,31.4,2.4c8.1-10.2,7.3-27.7-1.9-39.2L519.3,306z"/>
		</g>
	</g>
</g>
</svg>
