<?xml version="1.0" encoding="utf-8"?>
<!-- Generator: Adobe Illustrator 22.0.0, SVG Export Plug-In . SVG Version: 6.00 Build 0)  -->
<svg version="1.1" id="Capa_1" xmlns="http://www.w3.org/2000/svg" xmlns:xlink="http://www.w3.org/1999/xlink" x="0px" y="0px"
	 viewBox="0 0 612 612" style="enable-background:new 0 0 612 612;" xml:space="preserve">
<g>
	<g id="_x38__12_">
		<g>
			<path d="M218.6,0h-87.4C107,0,87.4,19.6,87.4,43.7v524.6c0,24.1,19.6,43.7,43.7,43.7h87.4c24.2,0,43.7-19.6,43.7-43.7V43.7
				C262.3,19.6,242.7,0,218.6,0z M480.9,0h-87.4c-24.2,0-43.7,19.6-43.7,43.7v524.6c0,24.1,19.6,43.7,43.7,43.7h87.4
				c24.2,0,43.7-19.6,43.7-43.7V43.7C524.6,19.6,505,0,480.9,0z"/>
		</g>
	</g>
</g>
</svg>
