<?xml version="1.0" encoding="utf-8"?>
<!-- Generator: Adobe Illustrator 22.0.0, SVG Export Plug-In . SVG Version: 6.00 Build 0)  -->
<svg version="1.2" baseProfile="tiny" id="Layer_1" xmlns="http://www.w3.org/2000/svg" xmlns:xlink="http://www.w3.org/1999/xlink"
	 x="0px" y="0px" viewBox="0 0 612 612" xml:space="preserve">
<path fill="#BD081C" d="M612,76.5v459c0,42.2-34.3,76.5-76.5,76.5H210.9c13.4-22.4,30.6-54.6,37.4-81c4.1-15.7,20.9-79.8,20.9-79.8
	c10.9,20.9,42.9,38.5,76.9,38.5c101.2,0,174-93,174-208.6c0-110.8-90.4-193.7-206.8-193.7c-144.8,0-221.6,97.1-221.6,203
	c0,49.2,26.2,110.4,68,129.9c6.4,3,9.7,1.6,11.2-4.5c1.1-4.6,6.8-27.5,9.3-38c0.8-3.4,0.4-6.3-2.3-9.6c-13.8-16.8-25-47.7-25-76.5
	c0-74,56-145.6,151.5-145.6c82.4,0,140.2,56.1,140.2,136.5c0,90.7-45.8,153.5-105.5,153.5c-32.9,0-57.5-27.2-49.7-60.7
	c9.4-39.9,27.7-82.9,27.7-111.7c0-72.4-103.1-62.4-103.1,34.2c0,29.6,10,49.9,10,49.9c-42.9,181.4-49.3,183.7-40.4,263.1l3,1.1H76.5
	C34.3,612,0,577.7,0,535.5v-459C0,34.3,34.3,0,76.5,0h459C577.7,0,612,34.3,612,76.5z"/>
</svg>
