<?xml version="1.0" encoding="utf-8"?>
<!-- Generator: Adobe Illustrator 22.0.0, SVG Export Plug-In . SVG Version: 6.00 Build 0)  -->
<svg version="1.2" baseProfile="tiny" id="Layer_1" xmlns="http://www.w3.org/2000/svg" xmlns:xlink="http://www.w3.org/1999/xlink"
	 x="0px" y="0px" viewBox="0 0 612 612" xml:space="preserve">
<path fill="#FF4500" d="M535.5,612h-459C34.3,612,0,577.7,0,535.5v-459C0,34.3,34.3,0,76.5,0h459C577.7,0,612,34.3,612,76.5v459
	C612,577.7,577.7,612,535.5,612z"/>
<g id="Artwork">
	<g>
		<path fill="#FFFFFF" d="M510,306c0-24.7-20-44.7-44.7-44.7c-12.2,0-22.9,4.7-30.8,12.5c-30.4-21.8-72.7-36.1-119.2-37.9l20.4-95.6
			l66.2,14c0.7,16.8,14.7,30.4,31.9,30.4c17.5,0,31.9-14.3,31.9-31.9c0-17.5-14.3-31.9-31.9-31.9c-12.5,0-23.3,7.2-28.3,17.9
			l-74.1-15.7c-2.1-0.4-4.3,0-6.1,1.1c-1.8,1.1-2.9,2.9-3.6,5l-22.5,106.7c-47.6,1.4-90.2,15.4-121,37.9c-7.9-7.5-19-12.5-30.8-12.5
			c-24.7,0-44.7,20-44.7,44.7c0,18.3,10.7,33.6,26.5,40.8c-0.7,4.3-1.1,8.9-1.1,13.6c0,68.7,79.8,124.2,178.6,124.2
			s178.6-55.5,178.6-124.2c0-4.7-0.4-8.9-1.1-13.2C498.9,340,510,324.3,510,306z M204,337.9c0-17.5,14.3-31.9,31.9-31.9
			s31.9,14.3,31.9,31.9c0,17.5-14.3,31.9-31.9,31.9S204,355.4,204,337.9z M381.9,422c-21.8,21.8-63.3,23.3-75.5,23.3
			c-12.2,0-54-1.8-75.5-23.3c-3.2-3.2-3.2-8.6,0-11.8c3.2-3.2,8.6-3.2,11.8,0c13.6,13.6,42.9,18.6,64.1,18.6
			c21.1,0,50.1-5,64.1-18.6c3.2-3.2,8.6-3.2,11.8,0C385.1,413.7,385.1,418.7,381.9,422z M376.1,369.7c-17.5,0-31.9-14.3-31.9-31.9
			c0-17.5,14.3-31.9,31.9-31.9c17.5,0,31.9,14.3,31.9,31.9C408,355.4,393.7,369.7,376.1,369.7z"/>
	</g>
</g>
</svg>
