<?xml version="1.0" encoding="utf-8"?>
<!-- Generator: Adobe Illustrator 22.0.0, SVG Export Plug-In . SVG Version: 6.00 Build 0)  -->
<svg version="1.1" id="Capa_1" xmlns="http://www.w3.org/2000/svg" xmlns:xlink="http://www.w3.org/1999/xlink" x="0px" y="0px"
	 viewBox="0 0 612 612" style="enable-background:new 0 0 612 612;" xml:space="preserve">
<g>
	<g id="_x32__27_">
		<g>
			<path d="M590.1,49.1c10.3-10.3,22-19.4,22-29.9S603.5,0,592.9,0H401.7c-2.3,0-19.1,0-19.1,19.1v191.2c0,10.6,8.6,19.1,19.1,19.1
				c10.6,0,17.9-10,26.1-18.2l53.1-53.1c33.8,39.9,54.5,91.4,54.5,147.8c0,126.7-102.8,229.5-229.5,229.5S76.4,432.8,76.4,306
				c0-113.7,82.7-207.8,191.2-226V2.7C116.8,21.6-0.1,150-0.1,306c0,169,137,306,306,306s306-137,306-306
				c0-77.6-29-148.3-76.6-202.2L590.1,49.1z"/>
		</g>
	</g>
</g>
</svg>
