<?xml version="1.0" encoding="utf-8"?>
<!-- Generator: Adobe Illustrator 22.0.0, SVG Export Plug-In . SVG Version: 6.00 Build 0)  -->
<svg version="1.1" id="Capa_1" xmlns="http://www.w3.org/2000/svg" xmlns:xlink="http://www.w3.org/1999/xlink" x="0px" y="0px"
	 viewBox="0 0 612 612" style="enable-background:new 0 0 612 612;" xml:space="preserve">
<g>
	<g id="_x33__1_">
		<g>
			<path d="M592.9,382.6H401.7c-10.6,0-19.1,8.6-19.1,19.1c0,10.6,10,17.9,18.2,26.1l53.1,53.1c-39.9,33.8-91.4,54.4-147.8,54.4
				c-113.7,0-207.8-82.7-226-191.1H2.7C21.5,495,150,611.8,306,611.8c77.6,0,148.3-29,202.2-76.6l54.8,54.8
				c10.3,10.3,19.4,22,29.9,22s19.1-8.6,19.1-19.1V401.7C612,399.4,612,382.6,592.9,382.6z M19.1,229.4h191.2
				c10.6,0,19.1-8.6,19.1-19.1s-10-17.9-18.2-26.1l-53.1-53.1c39.9-33.8,91.4-54.4,147.8-54.4c113.7,0,207.8,82.7,226,191.1h77.3
				C590.5,117,462,0.2,306,0.2c-77.6,0-148.3,29-202.2,76.6L49,22C38.7,11.7,29.7,0,19.1,0S0,8.6,0,19.1v191.1
				C0,212.6,0,229.4,19.1,229.4z"/>
		</g>
	</g>
</g>
</svg>
