<?xml version="1.0" encoding="iso-8859-1"?>
<!-- Generator: Adobe Illustrator 16.0.0, SVG Export Plug-In . SVG Version: 6.00 Build 0)  -->
<!DOCTYPE svg PUBLIC "-//W3C//DTD SVG 1.1//EN" "http://www.w3.org/Graphics/SVG/1.1/DTD/svg11.dtd">
<svg version="1.1" id="Capa_1" xmlns="http://www.w3.org/2000/svg" xmlns:xlink="http://www.w3.org/1999/xlink" x="0px" y="0px"
	 width="612px" height="612px" viewBox="0 0 612 612" style="enable-background:new 0 0 612 612;" xml:space="preserve">
<g>
	<g id="_x31_0_24_">
		<g>
			<path d="M535.5,0h-459C34.253,0,0,34.253,0,76.5v459C0,577.747,34.253,612,76.5,612h459c42.247,0,76.5-34.253,76.5-76.5v-459
				C612,34.253,577.747,0,535.5,0z M267.75,535.5H96.161c-5.355,0-10.156-2.219-13.617-5.757c-3.71-3.137-6.043-7.707-6.043-13.368
				V344.25c0-10.557,8.568-19.125,19.125-19.125s19.125,8.568,19.125,19.125l-0.612,125.747l129.82-129.82l27.043,27.042
				L140.97,497.25h126.78c10.557,0,19.125,8.568,19.125,19.125S278.307,535.5,267.75,535.5z M535.5,267.75
				c0,10.557-8.568,19.125-19.125,19.125s-19.125-8.568-19.125-19.125l0.612-125.747L368.041,271.824l-27.042-27.043l130.03-130.031
				H344.25c-10.557,0-19.125-8.568-19.125-19.125S333.693,76.5,344.25,76.5h171.59c5.354,0,10.155,2.219,13.616,5.757
				c3.711,3.136,6.044,7.707,6.044,13.368V267.75z"/>
		</g>
	</g>
</g>
<g>
</g>
<g>
</g>
<g>
</g>
<g>
</g>
<g>
</g>
<g>
</g>
<g>
</g>
<g>
</g>
<g>
</g>
<g>
</g>
<g>
</g>
<g>
</g>
<g>
</g>
<g>
</g>
<g>
</g>
</svg>
