<?xml version="1.0" encoding="iso-8859-1"?>
<!-- Generator: Adobe Illustrator 16.0.0, SVG Export Plug-In . SVG Version: 6.00 Build 0)  -->
<!DOCTYPE svg PUBLIC "-//W3C//DTD SVG 1.1//EN" "http://www.w3.org/Graphics/SVG/1.1/DTD/svg11.dtd">
<svg version="1.1" id="Capa_1" xmlns="http://www.w3.org/2000/svg" xmlns:xlink="http://www.w3.org/1999/xlink" x="0px" y="0px"
	 width="612px" height="612px" viewBox="0 0 612 612" style="enable-background:new 0 0 612 612;" xml:space="preserve">
<g>
	<g id="_x31__4_">
		<g>
			<path d="M535.5,0h-459C34.253,0,0,34.253,0,76.5v459C0,577.747,34.253,612,76.5,612h459c42.247,0,76.5-34.253,76.5-76.5v-459
				C612,34.253,577.747,0,535.5,0z M286.875,516.375c0,10.557-8.568,19.125-19.125,19.125s-19.125-8.568-19.125-19.125
				l0.593-125.747l-129.82,129.82l-27.024-27.042l130.012-130.031H95.625c-10.557,0-19.125-8.568-19.125-19.125
				s8.568-19.125,19.125-19.125h171.589c5.355,0,10.156,2.219,13.617,5.757c3.71,3.137,6.043,7.707,6.043,13.368V516.375z
				 M516.375,286.875h-171.59c-5.354,0-10.155-2.219-13.616-5.757c-3.711-3.136-6.044-7.707-6.044-13.368V95.625
				c0-10.557,8.568-19.125,19.125-19.125s19.125,8.568,19.125,19.125l-0.612,125.747L492.584,91.551l27.042,27.043l-130.03,130.031
				h126.779c10.557,0,19.125,8.568,19.125,19.125S526.932,286.875,516.375,286.875z"/>
		</g>
	</g>
</g>
<g>
</g>
<g>
</g>
<g>
</g>
<g>
</g>
<g>
</g>
<g>
</g>
<g>
</g>
<g>
</g>
<g>
</g>
<g>
</g>
<g>
</g>
<g>
</g>
<g>
</g>
<g>
</g>
<g>
</g>
</svg>
