<?xml version="1.0" encoding="utf-8"?>
<!-- Generator: Adobe Illustrator 22.0.0, SVG Export Plug-In . SVG Version: 6.00 Build 0)  -->
<svg version="1.1" id="Capa_1" xmlns="http://www.w3.org/2000/svg" xmlns:xlink="http://www.w3.org/1999/xlink" x="0px" y="0px"
	 viewBox="0 0 612 612" style="enable-background:new 0 0 612 612;" xml:space="preserve">
<g>
	<g id="_x35__37_">
		<g>
			<path d="M470.8,376.6c-41.7,0-78.1,21.8-99,54.4l-126-72c8.1-16,13.1-33.8,13.1-53c0-11.8-2.3-23-5.5-33.8l131.1-74.9
				c21.5,23.3,52,38.1,86.2,38.1c65,0,117.7-52.7,117.7-117.7S535.8,0,470.8,0S353.1,52.7,353.1,117.7c0,11.8,2.3,23,5.5,33.8
				l-131.1,74.9c-21.5-23.3-52-38.2-86.2-38.2c-65,0-117.7,52.7-117.7,117.7c0,65,52.7,117.7,117.7,117.7c26.8,0,51.3-9.3,71.1-24.5
				l142.1,82.3c-0.4,4.3-1.3,8.4-1.3,12.7c0,65,52.7,117.7,117.7,117.7s117.7-52.7,117.7-117.7S535.8,376.6,470.8,376.6z"/>
		</g>
	</g>
</g>
</svg>
