<?xml version="1.0" encoding="utf-8"?>
<!-- Generator: Adobe Illustrator 22.0.0, SVG Export Plug-In . SVG Version: 6.00 Build 0)  -->
<svg version="1.2" baseProfile="tiny" id="logo" xmlns="http://www.w3.org/2000/svg" xmlns:xlink="http://www.w3.org/1999/xlink"
	 x="0px" y="0px" viewBox="0 0 612 612" xml:space="preserve">
<g>
	<path fill="#39475D" d="M76.5,0h459C577.7,0,612,34.3,612,76.5v459c0,42.2-34.3,76.5-76.5,76.5h-459C34.3,612,0,577.7,0,535.5v-459
		C0,34.3,34.3,0,76.5,0z"/>
	<path fill="#FFFFFF" d="M420.8,477.9c-13.3,14.2-44,23.8-71.6,24.3h-3c-92.5,0-112.6-68-112.6-107.8V284h-36.5
		c-4.2,0-7.6-3.4-7.6-7.6c0,0,0,0,0,0v-52.1c0-5.5,3.5-10.4,8.6-12.2c47.5-16.7,62.4-58.2,64.6-89.7c0.6-8.4,5-12.5,12.3-12.5h54.3
		c4.2,0,7.6,3.4,7.6,7.6v88.2h63.6c4.2,0,7.6,3.4,7.6,7.6V276c0,4.2-3.4,7.6-7.6,7.6h-63.9v102c0,25.6,16.9,32.7,27.3,32.7
		c10-0.2,19.9-3.3,24.8-5.3c3.7-1.5,6.9-2.4,9.8-1.7c2.7,0.7,4.4,2.6,5.6,6l16.9,49.2C422.5,470.6,423.6,474.9,420.8,477.9z"/>
</g>
</svg>
