<?xml version="1.0" encoding="utf-8"?>
<!-- Generator: Adobe Illustrator 22.0.0, SVG Export Plug-In . SVG Version: 6.00 Build 0)  -->
<svg version="1.2" baseProfile="tiny" id="Layer_1" xmlns="http://www.w3.org/2000/svg" xmlns:xlink="http://www.w3.org/1999/xlink"
	 x="0px" y="0px" viewBox="0 0 612 612" xml:space="preserve">
<g id="Dark_Blue">
	<path fill="#1DA1F2" d="M76.5,0h459C577.7,0,612,34.3,612,76.5v459c0,42.2-34.3,76.5-76.5,76.5h-459C34.3,612,0,577.7,0,535.5v-459
		C0,34.3,34.3,0,76.5,0z"/>
</g>
<g id="Logo__x2014__FIXED">
	<path fill="#FFFFFF" d="M235,461.4c144.3,0,223.2-119.6,223.2-223.2c0-3.4,0-6.7-0.2-10.1c15.3-11,28.6-24.9,39.2-40.7
		c-14.1,6.3-29.2,10.4-45.1,12.4c16.2-9.6,28.6-25.1,34.6-43.5c-15.1,9-32,15.5-49.9,19c-14.4-15.3-34.7-24.8-57.2-24.8
		c-43.3,0-78.5,35.2-78.5,78.5c0,6.1,0.8,12.1,2,17.9c-65.2-3.2-123-34.6-161.7-82c-6.7,11.6-10.6,25.1-10.6,39.5
		c0,27.2,13.9,51.3,34.9,65.3c-12.9-0.5-24.9-4-35.5-9.8c0,0.3,0,0.6,0,1.1c0,37.9,27.1,69.8,62.9,77c-6.6,1.8-13.5,2.8-20.7,2.8
		c-5,0-9.9-0.5-14.7-1.4c9.9,31.2,39,53.9,73.3,54.5c-26.9,21.1-60.7,33.7-97.5,33.7c-6.3,0-12.5-0.3-18.7-1.1
		C149.5,448.4,190.8,461.4,235,461.4"/>
</g>
</svg>
