<?xml version="1.0" encoding="utf-8"?>
<!-- Generator: Adobe Illustrator 22.0.0, SVG Export Plug-In . SVG Version: 6.00 Build 0)  -->
<svg version="1.2" baseProfile="tiny" id="WhatsApp_Logo_Icon"
	 xmlns="http://www.w3.org/2000/svg" xmlns:xlink="http://www.w3.org/1999/xlink" x="0px" y="0px" viewBox="0 0 612 612"
	 xml:space="preserve">
<linearGradient id="SVGID_1_" gradientUnits="userSpaceOnUse" x1="306" y1="612" x2="306" y2="-9.094947e-13">
	<stop  offset="0" style="stop-color:#25CF43"/>
	<stop  offset="1" style="stop-color:#61FD7D"/>
</linearGradient>
<path fill-rule="evenodd" fill="url(#SVGID_1_)" d="M535.5,612h-459C34.3,612,0,577.7,0,535.5v-459C0,34.3,34.3,0,76.5,0h459
	C577.7,0,612,34.3,612,76.5v459C612,577.7,577.7,612,535.5,612z"/>
<g id="WA_Logo">
	<path fill-rule="evenodd" fill="#FFFFFF" d="M468.8,146.1c-41.2-41.2-96-63.9-154.3-64c-120.2,0-218.1,97.8-218.2,218.1
		c0,38.4,10,76,29.1,109l-30.9,113l115.6-30.3c31.9,17.4,67.7,26.5,104.3,26.5h0.1c0,0,0,0,0,0c120.2,0,218.1-97.8,218.2-218.1
		C532.7,242.1,510,187.3,468.8,146.1z M314.5,481.6L314.5,481.6c-32.6,0-64.5-8.7-92.4-25.3l-6.6-3.9l-68.6,18l18.3-66.9l-4.3-6.9
		c-18.2-28.9-27.7-62.2-27.7-96.5c0-99.9,81.4-181.3,181.4-181.3c48.4,0,94,18.9,128.2,53.2c34.2,34.3,53.1,79.8,53.1,128.2
		C495.8,400.3,414.4,481.6,314.5,481.6z M414,345.8c-5.5-2.7-32.3-15.9-37.2-17.7c-5-1.8-8.6-2.7-12.3,2.7
		c-3.6,5.5-14.1,17.7-17.3,21.4c-3.2,3.6-6.4,4.1-11.8,1.4c-5.5-2.7-23-8.5-43.8-27c-16.2-14.4-27.1-32.3-30.3-37.7
		c-3.2-5.5-0.3-8.4,2.4-11.1c2.5-2.4,5.5-6.4,8.2-9.5c2.7-3.2,3.6-5.5,5.5-9.1c1.8-3.6,0.9-6.8-0.5-9.5
		c-1.4-2.7-12.3-29.5-16.8-40.5c-4.4-10.6-8.9-9.2-12.3-9.4c-3.2-0.2-6.8-0.2-10.4-0.2c-3.6,0-9.5,1.4-14.5,6.8
		c-5,5.5-19.1,18.6-19.1,45.5s19.5,52.7,22.3,56.4c2.7,3.6,38.4,58.7,93.1,82.3c13,5.6,23.2,9,31.1,11.5c13.1,4.1,24.9,3.6,34.3,2.2
		c10.5-1.6,32.2-13.2,36.8-25.9c4.5-12.7,4.5-23.6,3.2-25.9C423.1,349.9,419.4,348.6,414,345.8z"/>
</g>
</svg>
